<svg width="174" height="46" viewBox="0 0 174 46" fill="none" xmlns="http://www.w3.org/2000/svg">
<path d="M17.767 20.1236H15.386L10.1079 11.3249H9.73824L4.46013 20.1236H2.08425L0 12.2983V0.313339H2.41809V11.8071L3.72275 16.8716L7.96991 9.77657C8.16242 9.51494 8.41924 9.30746 8.71549 9.17424C9.01174 9.04102 9.33738 8.98656 9.66085 9.01616H10.1667C10.4913 8.98632 10.8181 9.04137 11.115 9.17591C11.4119 9.31046 11.6687 9.51987 11.8602 9.78361L16.1285 16.8703L17.4312 11.8013V0.305664H19.8397V12.3526L17.767 20.1236Z" fill="#2B3559"/>
<path d="M27.4071 20.1251H24.9922V0.317383H27.4071V20.1251Z" fill="#2B3559"/>
<path d="M47.4523 20.1251H45.0995L45.0592 20.0612L34.9423 4.50891V20.1251H32.5275V0.317383H34.8503L34.8905 0.381338L45.0355 15.9637V0.317383H47.4523V20.1251Z" fill="#2B3559"/>
<path d="M61.6257 20.1251H52.5877V0.317383H61.6538C62.2354 0.319012 62.8108 0.436676 63.3463 0.66348C63.8818 0.890284 64.3667 1.22167 64.7725 1.63822C65.1784 2.05478 65.497 2.54813 65.7098 3.08938C65.9225 3.63063 66.0252 4.2089 66.0116 4.79031V15.6522C66.0235 16.2355 65.9189 16.8154 65.7038 17.3578C65.4887 17.9001 65.1675 18.3941 64.759 18.8107C64.3505 19.2273 63.8629 19.5581 63.3249 19.7839C62.7868 20.0096 62.2091 20.1256 61.6257 20.1251ZM55.0046 17.9111H60.729C62.0382 17.9111 63.5942 17.4755 63.5942 15.3938V5.05124C63.5942 2.96954 62.0375 2.53146 60.729 2.53146H55.0046V17.9111Z" fill="#2B3559"/>
<path d="M93.4683 20.1251H91.0534V2.53146H85.4184V0.317383H99.1007V2.53146H93.4683V20.1251Z" fill="#2B3559"/>
<path d="M116.665 20.1256H114.013L113.973 20.0489L109.624 11.5168H104.674V20.1256H102.257V0.31788H110.66C111.247 0.309005 111.829 0.419092 112.373 0.641505C112.916 0.863919 113.409 1.19405 113.821 1.61201C114.233 2.02996 114.557 2.52708 114.772 3.0734C114.987 3.61972 115.089 4.20393 115.072 4.79081V7.04773C115.093 7.97118 114.822 8.87766 114.299 9.63901C113.776 10.4004 113.027 10.9781 112.158 11.2904L116.665 20.1256ZM104.674 9.30274H109.88C111.725 9.30274 112.658 8.45535 112.658 6.78296V5.1093C112.658 3.4465 111.642 2.53196 109.793 2.53196H104.677L104.674 9.30274Z" fill="#2B3559"/>
<path d="M132.381 20.1251H120.549V0.317383H132.152V2.53146H122.964V9.12957H130.795V11.3436H122.964V17.9117H132.381V20.1251Z" fill="#2B3559"/>
<path d="M152.285 20.1251H149.736L149.702 20.0311L147.742 14.3476H139.593L137.629 20.1251H135.079L135.143 19.9397L141.908 0.317383H145.457L145.489 0.411394L152.285 20.1251ZM140.353 12.1034H146.986L143.724 2.64658H143.632L140.353 12.1034Z" fill="#2B3559"/>
<path d="M76.306 20.4469C73.031 20.4469 70.964 19.5803 70.1633 17.8721C69.7797 16.8739 69.6095 15.8064 69.6638 14.7384V14.5996H71.8728L71.8811 14.732C71.8788 15.463 72.0287 16.1865 72.3211 16.8565C72.6799 17.5933 73.9398 18.3684 76.4141 18.3684C80.7208 18.3684 81.0776 16.6902 81.0776 14.8222C81.0776 13.1504 80.7233 12.2858 77.4905 11.5791L74.2512 10.8596C71.5268 10.2642 70.3097 8.68516 70.3097 5.73753C70.3097 1.87728 72.5366 0.000244141 77.1144 0.000244141C80.4477 0.000244141 82.1489 0.749781 82.8063 2.50275C83.0268 3.33119 83.1295 4.18655 83.1114 5.04363V5.18242H80.9229L80.9165 5.05451C80.9229 4.47932 80.8194 3.90819 80.6114 3.37188C80.2872 2.73235 79.6125 2.08194 77.0351 2.08194C73.9967 2.08194 72.6409 3.14101 72.6409 5.51753C72.6409 7.30824 73.0828 8.1633 75.8245 8.78877L78.9544 9.48075C82.3663 10.2482 83.4618 11.4876 83.4618 14.6028C83.4612 18.1081 82.2441 20.4469 76.306 20.4469Z" fill="#2B3559"/>
<path d="M173.299 20.1215H170.884V5.41211H170.788L166.077 14.6023C165.928 14.8575 165.709 15.0656 165.447 15.2027C165.185 15.3398 164.89 15.4003 164.595 15.3774H164.164C163.869 15.4003 163.573 15.3392 163.312 15.2013C163.05 15.0633 162.832 14.8541 162.684 14.5978L157.942 5.39357H157.859V20.1221H155.45V0.313721H157.861L164.313 12.5928H164.435L170.887 0.313721H173.297L173.299 20.1215Z" fill="#2B3559"/>
<path d="M20.7722 45.6765H8.9324V25.8643H20.5419V28.0803H11.3518V34.6784H19.1816V36.8924H11.3518V43.4643H20.7722V45.6765Z" fill="#2B3559"/>
<path d="M39.5983 45.6765H37.2454L37.2026 45.6125L27.0858 30.0583V45.6771H24.6689V25.8643H26.9917L27.032 25.9282L37.1809 41.515V25.8643H39.5977L39.5983 45.6765Z" fill="#2B3559"/>
<path d="M50.8362 45.6765H48.4194V28.0803H42.7844V25.8643H56.4705V28.0803H50.8362V45.6765Z" fill="#2B3559"/>
<path d="M71.5044 45.6765H59.6672V25.8643H71.2716V28.0803H62.084V34.6784H69.9139V36.8924H62.084V43.4643H71.5044V45.6765Z" fill="#2B3559"/>
<path d="M89.7614 45.6771H87.1124L87.0741 45.6022L82.7175 37.0683H77.7682V45.6771H75.3513V25.8648H83.7555C84.3433 25.8552 84.927 25.9649 85.4712 26.1873C86.0154 26.4096 86.5089 26.74 86.9219 27.1584C87.3348 27.5769 87.6586 28.0747 87.8737 28.6218C88.0888 29.1689 88.1908 29.754 88.1734 30.3416V32.5966C88.1935 33.52 87.9228 34.4264 87.3996 35.1875C86.8764 35.9486 86.1271 36.526 85.2578 36.838L89.7614 45.6771ZM77.7682 34.8516H82.9759C84.821 34.8516 85.756 34.0042 85.756 32.3318V30.6582C85.756 28.9954 84.7378 28.0808 82.8883 28.0808H77.7682V34.8516Z" fill="#2B3559"/>
<path d="M96.0582 45.677H93.6414V25.8648H102.046C102.633 25.8559 103.216 25.9661 103.76 26.1887C104.303 26.4114 104.796 26.7418 105.209 27.1602C105.621 27.5786 105.944 28.0762 106.159 28.6229C106.374 29.1697 106.476 29.7543 106.458 30.3415V32.5965C106.476 33.1737 106.378 33.7484 106.17 34.2872C105.962 34.826 105.649 35.3179 105.249 35.7343C104.849 36.1507 104.37 36.4831 103.84 36.7122C103.31 36.9412 102.74 37.0622 102.163 37.0682H96.0582V45.677ZM96.0582 34.8515H101.267C103.112 34.8515 104.047 34.0041 104.047 32.3318V30.6581C104.047 28.9953 103.029 28.0808 101.18 28.0808H96.0582V34.8515Z" fill="#2B3559"/>
<path d="M124.678 45.6771H122.024L121.985 45.6022L117.629 37.0683H112.68V45.6771H110.263V25.8648H118.666C119.254 25.8552 119.838 25.9649 120.382 26.1873C120.926 26.4096 121.419 26.74 121.832 27.1584C122.245 27.5769 122.569 28.0747 122.784 28.6218C122.999 29.1689 123.101 29.754 123.084 30.3416V32.5966C123.104 33.5206 122.834 34.4277 122.31 35.1894C121.787 35.9512 121.037 36.529 120.167 36.8412L124.678 45.6771ZM112.68 34.8516H117.888C119.733 34.8516 120.668 34.0042 120.668 32.3318V30.6582C120.668 28.9954 119.649 28.0808 117.803 28.0808H112.68V34.8516Z" fill="#2B3559"/>
<path d="M130.931 45.6765H128.516V25.8643H130.931V45.6765Z" fill="#2B3559"/>
<path d="M164.359 45.6765H152.522V25.8643H164.129V28.0803H154.939V34.6784H162.771V36.8924H154.939V43.4643H164.359V45.6765Z" fill="#2B3559"/>
<path d="M141.503 45.9993C138.228 45.9993 136.161 45.1327 135.358 43.4245C134.975 42.426 134.805 41.3587 134.858 40.2908V40.152H137.073L137.081 40.2799C137.078 41.0125 137.227 41.7376 137.521 42.4089C137.878 43.1431 139.137 43.9182 141.609 43.9182C145.918 43.9182 146.275 42.2401 146.275 40.372C146.275 38.7002 145.92 37.8356 142.688 37.1263L139.448 36.4069C136.722 35.8114 135.507 34.2324 135.507 31.2822C135.507 27.4239 137.732 25.5469 142.312 25.5469C145.647 25.5469 147.349 26.2945 148.003 28.0475C148.224 28.8765 148.327 29.7325 148.309 30.5903V30.7329H146.122L146.116 30.605C146.122 30.0298 146.019 29.4587 145.81 28.9224C145.484 28.2828 144.807 27.6324 142.234 27.6324C139.194 27.6324 137.838 28.6915 137.838 31.068C137.838 32.8587 138.28 33.7157 141.022 34.3392L144.152 35.0331C147.565 35.7955 148.661 37.04 148.661 40.1552C148.66 43.6618 147.443 45.9993 141.503 45.9993Z" fill="#2B3559"/>
</svg>
